<svg xmlns="http://www.w3.org/2000/svg" viewBox="0 0 1200 650"><rect width="1200" height="650" rx="30" fill="#f7fbfb"/><g font-family="Arial" text-anchor="middle"><g fill="#fff" stroke="#9ec9c3" stroke-width="3"><rect x="58" y="116" width="190" height="96" rx="18"/><rect x="287" y="116" width="190" height="96" rx="18"/><rect x="516" y="116" width="190" height="96" rx="18"/><rect x="745" y="116" width="190" height="96" rx="18"/><rect x="974" y="116" width="170" height="96" rx="18"/><rect x="169" y="384" width="230" height="108" rx="18"/><rect x="485" y="384" width="230" height="108" rx="18"/><rect x="801" y="384" width="230" height="108" rx="18"/></g><g fill="#0f2744" font-size="22"><text x="153" y="158">UAV imagery</text><text x="153" y="188">&amp; reference data</text><text x="382" y="158">Deep-learning</text><text x="382" y="188">segmentation</text><text x="611" y="158">Vectorization &amp;</text><text x="611" y="188">regularization</text><text x="840" y="158">Spatially exclusive</text><text x="840" y="188">consolidation</text><text x="1059" y="158">Feature</text><text x="1059" y="188">engineering</text><text x="284" y="431">ML quality screening</text><text x="284" y="462">DT · RF · XGBoost</text><text x="600" y="431">Independent-site</text><text x="600" y="462">validation</text><text x="916" y="431">GIS-ready database</text><text x="916" y="462">quality indicators</text></g><g stroke="#0f766e" stroke-width="7" fill="none" stroke-linecap="round"><path d="M248 164h31"/><path d="M477 164h31"/><path d="M706 164h31"/><path d="M935 164h31"/><path d="M1059 212v74H284v90"/><path d="M399 438h78"/><path d="M715 438h78"/></g><g fill="#0f766e"><path d="M279 152l18 12-18 12z"/><path d="M508 152l18 12-18 12z"/><path d="M737 152l18 12-18 12z"/><path d="M966 152l18 12-18 12z"/><path d="M272 376l12 18 12-18z"/><path d="M477 426l18 12-18 12z"/><path d="M793 426l18 12-18 12z"/></g><text x="600" y="72" font-size="30" fill="#0f2744" font-weight="700">Object-level GeoAI quality-control workflow</text><text x="600" y="574" font-size="20" fill="#55706c">Editable portfolio illustration — replace or supplement with your thesis figure</text></g></svg>