<svg xmlns="http://www.w3.org/2000/svg" width="1200" height="700" viewBox="0 0 1200 700"><rect width="1200" height="700" fill="#f5efe6"/><rect x="46" y="46" width="1108" height="608" rx="28" fill="#fffdf9" stroke="#d8cdbd" stroke-width="2"/><text x="74" y="102" text-anchor="start" font-size="42" font-weight="800" fill="#18314a" font-family="Arial, Helvetica, sans-serif">EDITOR GEODATABASE ORGANIZER</text><rect x="74" y="128" width="210" height="50" rx="12" fill="#e8f0f7" stroke="#cbd8e3" stroke-width="1"/><text x="179.0" y="162" text-anchor="middle" font-size="25" font-weight="700" fill="#18314a" font-family="Arial, Helvetica, sans-serif">zone code</text><rect x="302" y="128" width="250" height="50" rx="12" fill="#eaf2e7" stroke="#cad8ce" stroke-width="1"/><text x="427.0" y="162" text-anchor="middle" font-size="25" font-weight="700" fill="#18314a" font-family="Arial, Helvetica, sans-serif">SelectByLocation</text><rect x="570" y="128" width="220" height="50" rx="12" fill="#f3e6d7" stroke="#ddc8ad" stroke-width="1"/><text x="680.0" y="162" text-anchor="middle" font-size="25" font-weight="700" fill="#18314a" font-family="Arial, Helvetica, sans-serif">FeatureClassToFC</text><rect x="74" y="226" width="250" height="330" rx="16" fill="#f4ead7" stroke="#ddc79f" stroke-width="2"/><text x="199" y="266" text-anchor="middle" font-size="28" font-weight="800" fill="#b97918" font-family="Arial, Helvetica, sans-serif">ASSIGNMENT</text><rect x="108" y="316" width="182" height="64" rx="10" fill="#fff" stroke="#ddc79f" stroke-width="2"/><text x="199" y="356" text-anchor="middle" font-size="32" font-weight="800" fill="#18314a" font-family="Arial, Helvetica, sans-serif">ZONE 12</text><rect x="388" y="226" width="360" height="330" rx="16" fill="#eef3f7" stroke="#cbd7e1" stroke-width="2"/><text x="568" y="266" text-anchor="middle" font-size="28" font-weight="800" fill="#5689b4" font-family="Arial, Helvetica, sans-serif">PERSONAL GDB</text><ellipse cx="568" cy="340" rx="106" ry="28" fill="#dce8ef" stroke="#bfd0dd" stroke-width="3"/><rect x="462" y="340" width="212" height="118" fill="#eaf2f7" stroke="#bfd0dd" stroke-width="3"/><ellipse cx="568" cy="458" rx="106" ry="28" fill="#dce8ef" stroke="#bfd0dd" stroke-width="3"/><text x="568" y="398" text-anchor="middle" font-size="28" font-weight="800" fill="#18314a" font-family="Arial, Helvetica, sans-serif">Feature dataset</text><rect x="820" y="226" width="260" height="330" rx="16" fill="#eef5ef" stroke="#c9d9cc" stroke-width="2"/><text x="950" y="266" text-anchor="middle" font-size="28" font-weight="800" fill="#3f807f" font-family="Arial, Helvetica, sans-serif">PACKAGE</text><rect x="852" y="318" width="196" height="36" rx="8" fill="#fff" stroke="#c9d9cc" stroke-width="2"/><text x="950" y="343" text-anchor="middle" font-size="20" font-weight="700" fill="#18314a" font-family="Arial, Helvetica, sans-serif">EA boundary</text><rect x="852" y="370" width="196" height="36" rx="8" fill="#fff" stroke="#c9d9cc" stroke-width="2"/><text x="950" y="395" text-anchor="middle" font-size="20" font-weight="700" fill="#18314a" font-family="Arial, Helvetica, sans-serif">Roads / rivers</text><rect x="852" y="422" width="196" height="36" rx="8" fill="#fff" stroke="#c9d9cc" stroke-width="2"/><text x="950" y="447" text-anchor="middle" font-size="20" font-weight="700" fill="#18314a" font-family="Arial, Helvetica, sans-serif">Landmarks</text><rect x="852" y="474" width="196" height="36" rx="8" fill="#fff" stroke="#c9d9cc" stroke-width="2"/><text x="950" y="499" text-anchor="middle" font-size="20" font-weight="700" fill="#18314a" font-family="Arial, Helvetica, sans-serif">Editor fields</text><line x1="332" y1="390" x2="380" y2="390" stroke="#b97918" stroke-width="6" stroke-linecap="round"/><polygon points="380,390 348.3862766134368,397.18166572924747 348.3862766134368,382.81833427075253" fill="#b97918"/><line x1="756" y1="390" x2="812" y2="390" stroke="#3f807f" stroke-width="6" stroke-linecap="round"/><polygon points="812,390 780.3862766134368,397.18166572924747 780.3862766134368,382.81833427075253" fill="#3f807f"/></svg>