<svg xmlns="http://www.w3.org/2000/svg" width="1200" height="700" viewBox="0 0 1200 700"><rect width="1200" height="700" fill="#f5efe6"/><rect x="46" y="46" width="1108" height="608" rx="28" fill="#fffdf9" stroke="#d8cdbd" stroke-width="2"/><text x="74" y="102" text-anchor="start" font-size="44" font-weight="800" fill="#17324a" font-family="Arial, Helvetica, sans-serif">IMAGE CODE → BOUNDARY</text><rect x="74" y="128" width="230" height="50" rx="12" fill="#e8f0f7" stroke="#cbd8e3" stroke-width="1"/><text x="189.0" y="162" text-anchor="middle" font-size="25" font-weight="700" fill="#17324a" font-family="Arial, Helvetica, sans-serif">layer.name[:16]</text><rect x="322" y="128" width="250" height="50" rx="12" fill="#eaf2e7" stroke="#cad8ce" stroke-width="1"/><text x="447.0" y="162" text-anchor="middle" font-size="25" font-weight="700" fill="#17324a" font-family="Arial, Helvetica, sans-serif">mauza_geo_code</text><rect x="590" y="128" width="180" height="50" rx="12" fill="#f3e6d7" stroke="#ddc8ad" stroke-width="1"/><text x="680.0" y="162" text-anchor="middle" font-size="25" font-weight="700" fill="#17324a" font-family="Arial, Helvetica, sans-serif">dataFrame.extent</text><rect x="74" y="226" width="300" height="330" rx="16" fill="#eef3f7" stroke="#cbd7e1" stroke-width="2"/><text x="224" y="266" text-anchor="middle" font-size="28" font-weight="800" fill="#5689b4" font-family="Arial, Helvetica, sans-serif">IMAGE TILE</text><rect x="108" y="312" width="232" height="164" rx="10" fill="#dce9f2" stroke="#cbd7e1" stroke-width="2"/><path d="M128 450 L168 352 L224 384 L282 334 L322 416" fill="none" stroke="#5689b4" stroke-width="7" stroke-linecap="round" stroke-linejoin="round"/><rect x="108" y="494" width="232" height="38" rx="8" fill="#fff" stroke="#cbd7e1" stroke-width="2"/><text x="224" y="520" text-anchor="middle" font-size="19" font-weight="700" fill="#17324a" font-family="Arial, Helvetica, sans-serif">20260805_000123.jpg</text><rect x="454" y="226" width="258" height="330" rx="16" fill="#f7eee4" stroke="#ddc8ad" stroke-width="2"/><text x="583" y="266" text-anchor="middle" font-size="28" font-weight="800" fill="#b97918" font-family="Arial, Helvetica, sans-serif">QUERY</text><rect x="492" y="330" width="182" height="70" rx="10" fill="#fff" stroke="#ddc8ad" stroke-width="2"/><text x="583" y="360" text-anchor="middle" font-size="20" font-weight="800" fill="#17324a" font-family="Arial, Helvetica, sans-serif">mauza_geo_code</text><text x="583" y="390" text-anchor="middle" font-size="18" font-weight="700" fill="#17324a" font-family="Arial, Helvetica, sans-serif">= 20260805_000123</text><rect x="792" y="226" width="290" height="330" rx="16" fill="#eef5ef" stroke="#c9d9cc" stroke-width="2"/><text x="937" y="266" text-anchor="middle" font-size="28" font-weight="800" fill="#3f807f" font-family="Arial, Helvetica, sans-serif">MATCHED BOUNDARY</text><path d="M838 470 L860 316 L934 346 L1012 296 L1048 410 L982 500 Z" fill="#dceade" stroke="#3f807f" stroke-width="5" stroke-linecap="round" stroke-linejoin="round"/><circle cx="952" cy="406" r="16" fill="#b97918" stroke="#fff" stroke-width="4"/><line x1="382" y1="390" x2="446" y2="390" stroke="#b97918" stroke-width="6" stroke-linecap="round"/><polygon points="446,390 414.3862766134368,397.18166572924747 414.3862766134368,382.81833427075253" fill="#b97918"/><line x1="720" y1="390" x2="784" y2="390" stroke="#3f807f" stroke-width="6" stroke-linecap="round"/><polygon points="784,390 752.3862766134368,397.18166572924747 752.3862766134368,382.81833427075253" fill="#3f807f"/></svg>