<svg xmlns="http://www.w3.org/2000/svg" width="1200" height="700" viewBox="0 0 1200 700"><rect width="1200" height="700" fill="#f5efe6"/><rect x="46" y="46" width="1108" height="608" rx="28" fill="#fffdf9" stroke="#d8cdbd" stroke-width="2"/><text x="74" y="102" text-anchor="start" font-size="44" font-weight="800" fill="#17324a" font-family="Arial, Helvetica, sans-serif">LAND-USE CLIP + EXCEL</text><rect x="74" y="128" width="170" height="50" rx="12" fill="#e8f0f7" stroke="#cbd8e3" stroke-width="1"/><text x="159.0" y="162" text-anchor="middle" font-size="25" font-weight="700" fill="#17324a" font-family="Arial, Helvetica, sans-serif">Clip</text><rect x="262" y="128" width="200" height="50" rx="12" fill="#eaf2e7" stroke="#cad8ce" stroke-width="1"/><text x="362.0" y="162" text-anchor="middle" font-size="25" font-weight="700" fill="#17324a" font-family="Arial, Helvetica, sans-serif">LU_Area</text><rect x="480" y="128" width="240" height="50" rx="12" fill="#f3e6d7" stroke="#ddc8ad" stroke-width="1"/><text x="600.0" y="162" text-anchor="middle" font-size="25" font-weight="700" fill="#17324a" font-family="Arial, Helvetica, sans-serif">TableToExcel</text><rect x="74" y="226" width="410" height="330" rx="16" fill="#eef3f7" stroke="#cbd7e1" stroke-width="2"/><text x="279" y="266" text-anchor="middle" font-size="28" font-weight="800" fill="#5689b4" font-family="Arial, Helvetica, sans-serif">PAGE-BASED CLIP</text><rect x="112" y="310" width="334" height="200" rx="10" fill="#fff" stroke="#cbd7e1" stroke-width="2"/><polygon points="130,488 156,342 230,368 276,320 340,386 420,336 430,488" fill="#d7e8ca" stroke="#b8cea9" stroke-width="3"/><polygon points="130,488 130,390 210,370 250,430 330,388 360,488" fill="#f2d4b8" stroke="#ddb98f" stroke-width="3"/><rect x="238" y="320" width="112" height="188" rx="0" fill="none" stroke="#d45b4f" stroke-width="5"/><text x="294" y="536" text-anchor="middle" font-size="22" font-weight="800" fill="#d45b4f" font-family="Arial, Helvetica, sans-serif">Page 07</text><rect x="540" y="226" width="210" height="330" rx="16" fill="#f6eee4" stroke="#ddc8ad" stroke-width="2"/><text x="645" y="266" text-anchor="middle" font-size="28" font-weight="800" fill="#b97918" font-family="Arial, Helvetica, sans-serif">AREA</text><text x="645" y="372" text-anchor="middle" font-size="46" font-weight="800" fill="#17324a" font-family="Arial, Helvetica, sans-serif">12.48</text><text x="645" y="410" text-anchor="middle" font-size="26" font-weight="700" fill="#17324a" font-family="Arial, Helvetica, sans-serif">hectares</text><rect x="806" y="226" width="276" height="330" rx="16" fill="#eef5ef" stroke="#c9d9cc" stroke-width="2"/><text x="944" y="266" text-anchor="middle" font-size="28" font-weight="800" fill="#3f807f" font-family="Arial, Helvetica, sans-serif">EXCEL REPORT</text><rect x="842" y="312" width="204" height="186" rx="8" fill="#fff" stroke="#c9d9cc" stroke-width="2"/><line x1="842" y1="348" x2="1046" y2="348" stroke="#d4ded7" stroke-width="3" stroke-linecap="round"/><line x1="842" y1="384" x2="1046" y2="384" stroke="#d4ded7" stroke-width="3" stroke-linecap="round"/><line x1="842" y1="420" x2="1046" y2="420" stroke="#d4ded7" stroke-width="3" stroke-linecap="round"/><line x1="842" y1="456" x2="1046" y2="456" stroke="#d4ded7" stroke-width="3" stroke-linecap="round"/><line x1="910" y1="312" x2="910" y2="498" stroke="#d4ded7" stroke-width="3" stroke-linecap="round"/><line x1="978" y1="312" x2="978" y2="498" stroke="#d4ded7" stroke-width="3" stroke-linecap="round"/><line x1="490" y1="390" x2="532" y2="390" stroke="#b97918" stroke-width="6" stroke-linecap="round"/><polygon points="532,390 500.3862766134368,397.18166572924747 500.3862766134368,382.81833427075253" fill="#b97918"/><line x1="758" y1="390" x2="798" y2="390" stroke="#3f807f" stroke-width="6" stroke-linecap="round"/><polygon points="798,390 766.3862766134368,397.18166572924747 766.3862766134368,382.81833427075253" fill="#3f807f"/></svg>