<svg xmlns="http://www.w3.org/2000/svg" width="1200" height="700" viewBox="0 0 1200 700"><rect width="1200" height="700" fill="#eef2f6"/><rect x="46" y="46" width="1108" height="608" rx="28" fill="#fff" stroke="#d9dfe6" stroke-width="2"/><text x="74" y="102" text-anchor="start" font-size="40" font-weight="800" fill="#1d3550" font-family="Arial, Helvetica, sans-serif">LAND-ACQUISITION MAP + REPORT</text><rect x="74" y="128" width="220" height="50" rx="12" fill="#e9f1f8" stroke="#cbd8e4" stroke-width="1"/><text x="184.0" y="162" text-anchor="middle" font-size="25" font-weight="700" fill="#1d3550" font-family="Arial, Helvetica, sans-serif">SelectByLocation</text><rect x="312" y="128" width="220" height="50" rx="12" fill="#edf4ed" stroke="#cad8ce" stroke-width="1"/><text x="422.0" y="162" text-anchor="middle" font-size="25" font-weight="700" fill="#1d3550" font-family="Arial, Helvetica, sans-serif">area aggregation</text><rect x="550" y="128" width="240" height="50" rx="12" fill="#f4e8db" stroke="#ddc9b0" stroke-width="1"/><text x="670.0" y="162" text-anchor="middle" font-size="25" font-weight="700" fill="#1d3550" font-family="Arial, Helvetica, sans-serif">layout elements</text><rect x="74" y="226" width="430" height="330" rx="16" fill="#f4f7fa" stroke="#cbd7e2" stroke-width="2"/><text x="289" y="266" text-anchor="middle" font-size="28" font-weight="800" fill="#5c90c0" font-family="Arial, Helvetica, sans-serif">SELECTED PLOTS</text><rect x="112" y="316" width="74" height="52" rx="0" fill="#e8f0f7" stroke="#ccd7df" stroke-width="2"/><rect x="200" y="316" width="74" height="52" rx="0" fill="#eef4ed" stroke="#ccd7df" stroke-width="2"/><rect x="288" y="316" width="74" height="52" rx="0" fill="#f4e8db" stroke="#ccd7df" stroke-width="2"/><rect x="376" y="316" width="74" height="52" rx="0" fill="#fff" stroke="#ccd7df" stroke-width="2"/><rect x="112" y="380" width="74" height="52" rx="0" fill="#eef4ed" stroke="#ccd7df" stroke-width="2"/><rect x="200" y="380" width="74" height="52" rx="0" fill="#f4e8db" stroke="#ccd7df" stroke-width="2"/><rect x="288" y="380" width="74" height="52" rx="0" fill="#fff" stroke="#ccd7df" stroke-width="2"/><rect x="376" y="380" width="74" height="52" rx="0" fill="#e8f0f7" stroke="#ccd7df" stroke-width="2"/><rect x="112" y="444" width="74" height="52" rx="0" fill="#f4e8db" stroke="#ccd7df" stroke-width="2"/><rect x="200" y="444" width="74" height="52" rx="0" fill="#fff" stroke="#ccd7df" stroke-width="2"/><rect x="288" y="444" width="74" height="52" rx="0" fill="#e8f0f7" stroke="#ccd7df" stroke-width="2"/><rect x="376" y="444" width="74" height="52" rx="0" fill="#eef4ed" stroke="#ccd7df" stroke-width="2"/><rect x="288" y="380" width="74" height="52" rx="0" fill="none" stroke="#d35f55" stroke-width="5"/><rect x="376" y="316" width="74" height="52" rx="0" fill="none" stroke="#d35f55" stroke-width="5"/><rect x="566" y="226" width="270" height="330" rx="16" fill="#fff" stroke="#cbd7e2" stroke-width="2"/><text x="701" y="266" text-anchor="middle" font-size="28" font-weight="800" fill="#5c90c0" font-family="Arial, Helvetica, sans-serif">PLOT TABLE</text><rect x="602" y="314" width="198" height="190" rx="8" fill="#f9fbfc" stroke="#cbd7e2" stroke-width="2"/><line x1="602" y1="352" x2="800" y2="352" stroke="#d4dde5" stroke-width="3" stroke-linecap="round"/><line x1="602" y1="390" x2="800" y2="390" stroke="#d4dde5" stroke-width="3" stroke-linecap="round"/><line x1="602" y1="428" x2="800" y2="428" stroke="#d4dde5" stroke-width="3" stroke-linecap="round"/><line x1="602" y1="466" x2="800" y2="466" stroke="#d4dde5" stroke-width="3" stroke-linecap="round"/><line x1="668" y1="314" x2="668" y2="504" stroke="#d4dde5" stroke-width="3" stroke-linecap="round"/><line x1="734" y1="314" x2="734" y2="504" stroke="#d4dde5" stroke-width="3" stroke-linecap="round"/><rect x="894" y="226" width="188" height="330" rx="16" fill="#f4e8db" stroke="#ddc9b0" stroke-width="2"/><text x="988" y="266" text-anchor="middle" font-size="28" font-weight="800" fill="#b97918" font-family="Arial, Helvetica, sans-serif">PDF SHEET</text><rect x="932" y="320" width="112" height="154" rx="10" fill="#fff" stroke="#d8cdbd" stroke-width="2"/><rect x="948" y="338" width="80" height="54" rx="7" fill="#e8f0f7" stroke="#cbd7e2" stroke-width="2"/><line x1="948" y1="420" x2="1028" y2="420" stroke="#d0d8df" stroke-width="4" stroke-linecap="round"/><line x1="948" y1="440" x2="1018" y2="440" stroke="#d0d8df" stroke-width="4" stroke-linecap="round"/><line x1="512" y1="390" x2="558" y2="390" stroke="#5c90c0" stroke-width="6" stroke-linecap="round"/><polygon points="558,390 526.3862766134368,397.18166572924747 526.3862766134368,382.81833427075253" fill="#5c90c0"/><line x1="844" y1="390" x2="886" y2="390" stroke="#b97918" stroke-width="6" stroke-linecap="round"/><polygon points="886,390 854.3862766134368,397.18166572924747 854.3862766134368,382.81833427075253" fill="#b97918"/></svg>